<svg width="565" height="564" viewBox="0 0 565 564" fill="none" xmlns="http://www.w3.org/2000/svg">
<path fill-rule="evenodd" clip-rule="evenodd" d="M267.667 0.498659C327.446 -5.71891 373.005 47.6926 423.616 77.8981C474.24 108.111 555.432 122.212 564.262 177.51C573.849 237.554 487.328 272.932 463.798 329.56C447.736 368.213 480.324 419.745 450.727 450.738C421.093 481.769 363.237 460.056 322.655 477.358C271.348 499.232 241.735 561.71 185.333 563.886C128.099 566.094 63.171 536.105 37.8963 488.343C12.1917 439.769 68.4437 384.629 62.0057 330.833C55.9088 279.885 -13.3162 239.923 2.28318 190.753C17.4618 142.91 90.1474 138.631 132.65 108.161C180.575 73.8027 207.508 6.75558 267.667 0.498659Z" fill="#293A80"/>
</svg>
